#!OML:ASF E:\acrobat2\Project_11_07_03\Capture day 1\Session 1\Acrobat.ASF
:FULLY-SPECIFIED
:DEGREES
313
root 2.51641 13.5895 -5.81939 5.52726 5.57221 -1.19731
lowerback 21.4967 -0.889231 10.1489
upperback 11.3433 0.83533 4.72277
thorax 0.559346 0.72923 -0.819875
lowerneck 1.29663 -0.424526 4.21027
upperneck -9.33333 -1.62257 -14.3976
head -3.09457 -0.403589 -5.04759
rclavicle -7.95139e-015 -1.11319e-014
rhumerus 6.45992 11.0972 -53.1011
rradius 50.0269
rwrist -4.79772
rhand 0.128954 -21.4818
rfingers 7.12502
rthumb 25.7139 -49.7647
lclavicle -7.95139e-015 -1.11319e-014
lhumerus -30.8664 -4.04925 60.6031
lradius 13.8906
lwrist -12.0699
lhand -30.2537 -20.5169
lfingers 7.12502
lthumb -3.56243 9.43306
rfemur -52.9264 -21.7055 0.738872
rtibia 79.0758
rfoot -23.6738 3.38007
rtoes -38.6922
lfemur -72.941 18.1104 -34.7037
ltibia 100.632
lfoot 13.4888 -24.0693
ltoes 45.2674
314
root 2.52445 13.458 -5.66589 5.32214 6.47842 -1.56148
lowerback 21.8622 -0.88964 10.3447
upperback 11.4894 0.917975 4.71236
thorax 0.55746 0.786395 -0.954674
lowerneck 1.38334 -0.533729 4.13649
upperneck -9.47231 -1.77807 -14.2716
head -3.16488 -0.473371 -4.99216
rclavicle -1.59028e-015 1.59028e-014
rhumerus 6.98084 10.5184 -52.0165
rradius 49.4245
rwrist -5.38033
rhand 0.908956 -21.8211
rfingers 7.12502
rthumb 26.4607 -49.9939
lclavicle -1.59028e-015 1.59028e-014
lhumerus -29.9905 -2.95281 59.7857
lradius 13.7766
lwrist -12.4818
lhand -30.514 -20.6808
lfingers 7.12502
lthumb -3.81387 9.26479
rfemur -52.7035 -23.1231 0.7641
rtibia 80.7761
rfoot -24.695 3.41177
rtoes -38.9971
lfemur -75.7311 18.0603 -35.8463
ltibia 98.8838
lfoot 12.9961 -23.6452
ltoes 45.2776
315
root 2.53856 13.3275 -5.51106 5.18627 7.31099 -1.94638
lowerback 22.1392 -0.858414 10.5087
upperback 11.6057 1.02566 4.69804
thorax 0.568379 0.854348 -1.08183
lowerneck 1.4486 -0.636356 4.08764
upperneck -9.62527 -1.92713 -14.1704
head -3.23499 -0.540252 -4.94894
rclavicle 6.36111e-015 -2.70347e-014
rhumerus 7.42334 9.90997 -50.9618
rradius 48.8612
rwrist -6.01661
rhand 1.64656 -22.2738
rfingers 7.12502
rthumb 27.1665 -50.3383
lclavicle 6.36111e-015 -2.70347e-014
lhumerus -29.1776 -2.0002 59.0846
lradius 13.7294
lwrist -12.7036
lhand -30.6542 -20.8131
lfingers 7.12502
lthumb -3.9492 9.13002
rfemur -52.5795 -24.5962 0.836222
rtibia 82.4233
rfoot -25.6745 3.11662
rtoes -39.6859
lfemur -78.3919 17.9649 -37.0076
ltibia 96.8549
lfoot 11.9727 -23.0423
ltoes 44.8387
316
root 2.5574 13.1969 -5.35538 5.10587 8.06207 -2.33653
lowerback 22.3585 -0.791325 10.611
upperback 11.6877 1.16219 4.67904
thorax 0.57002 0.932486 -1.18687
lowerneck 1.48684 -0.732225 4.04493
upperneck -9.77622 -2.06735 -14.0799
head -3.29894 -0.603673 -4.91031
rclavicle -2.22639e-014 4.77083e-015
rhumerus 7.80523 9.29969 -49.9164
rradius 48.318
rwrist -6.68269
rhand 2.30018 -22.8024
rfingers 7.12502
rthumb 27.7916 -50.7676
lclavicle -2.22639e-014 4.77083e-015
lhumerus -28.4503 -1.17465 58.4823
lradius 13.7561
lwrist -12.78
lhand -30.7172 -20.9179
lfingers 7.12502
lthumb -4.01005 9.02408
rfemur -52.5382 -26.098 0.927165
rtibia 84.0302
rfoot -26.6222 2.55865
rtoes -40.5783
lfemur -80.895 17.8601 -38.1826
ltibia 94.5916
lfoot 10.4375 -22.1573
ltoes 43.9092
317
root 2.57957 13.0654 -5.19905 5.05977 8.73711 -2.7311
lowerback 22.5479 -0.693027 10.6392
upperback 11.7342 1.32291 4.65765
thorax 0.545671 1.01699 -1.25991
lowerneck 1.51999 -0.817371 3.99452
upperneck -9.93412 -2.19407 -13.9921
head -3.36263 -0.659972 -4.87155
rclavicle 2.54444e-014 5.24792e-014
rhumerus 8.14767 8.70564 -48.872
rradius 47.77
rwrist -7.33943
rhand 2.84944 -23.339
rfingers 7.12502
rthumb 28.3167 -51.2182
lclavicle 2.54444e-014 5.24792e-014
lhumerus -27.827 -0.476556 57.9657
lradius 13.8605
lwrist -12.7356
lhand -30.7842 -21.0253
lfingers 7.12502
lthumb -4.07474 8.91547
rfemur -52.5476 -27.6002 1.01864
rtibia 85.605
rfoot -27.5302 1.8229
rtoes -41.4656
lfemur -83.2138 17.7703 -39.3488
ltibia 92.1489
lfoot 8.50027 -20.914
ltoes 42.4829
318
root 2.60485 12.9322 -5.0423 5.03214 9.33642 -3.14086
lowerback 22.7248 -0.572346 10.6118
upperback 11.7449 1.50191 4.62918
thorax 0.486384 1.10541 -1.31524
lowerneck 1.56059 -0.886572 3.93339
upperneck -10.0991 -2.29927 -13.8971
head -3.4274 -0.704992 -4.8294
rclavicle -1.74931e-014 -2.06736e-014
rhumerus 8.46232 8.13319 -47.8377
rradius 47.1923
rwrist -7.93701
rhand 3.26806 -23.7927
rfingers 7.12502
rthumb 28.7167 -51.6048
lclavicle -1.74931e-014 -2.06736e-014
lhumerus -27.3018 0.106149 57.5074
lradius 14.0186
lwrist -12.63
lhand -30.8845 -21.1334
lfingers 7.12502
lthumb -4.17162 8.80553
rfemur -52.5856 -29.0779 1.10158
rtibia 87.1516
rfoot -28.3756 1.01893
rtoes -42.1811
lfemur -85.338 17.7096 -40.4721
ltibia 89.5852
lfoot 6.42837 -19.2576
ltoes 40.7538
319
root 2.63301 12.7969 -4.88537 5.00024 9.87466 -3.57264
lowerback 22.9011 -0.442989 10.5412
upperback 11.7295 1.68466 4.59245
thorax 0.396341 1.19167 -1.35797
lowerneck 1.6016 -0.935181 3.88044
upperneck -10.2757 -2.37706 -13.8041
head -3.4931 -0.736247 -4.79033
rclavicle -1.43125e-014 1.74931e-014
rhumerus 8.76776 7.58012 -46.824
rradius 46.5753
rwrist -8.44714
rhand 3.56142 -24.1283
rfingers 7.12502
rthumb 28.9969 -51.8926
lclavicle -1.43125e-014 1.74931e-014
lhumerus -26.8508 0.647778 57.0661
lradius 14.1881
lwrist -12.5739
lhand -31.0175 -21.2598
lfingers 7.12502
lthumb -4.30002 8.67659
rfemur -52.6049 -30.521 1.1533
rtibia 88.6731
rfoot -29.1501 0.271773
rtoes -42.564
lfemur -87.2535 17.6814 -41.5207
ltibia 86.9592
lfoot 4.56191 -17.2101
ltoes 39.0997
